<svg xmlns="http://www.w3.org/2000/svg" style="display: none;"><symbol id="up_sm" viewBox="0 0 24 24"><g class="nc-icon-wrapper" stroke="none"><path fill="none" stroke="currentColor" stroke-miterlimit="10" d="M16.3 13.1L12 8.9l-4.3 4.2"/></g></symbol><symbol id="arrow" viewBox="0 0 24 24"><g class="nc-icon-wrapper" stroke="none"><path d="M.5 12h22.2m-7.9 7.9l7.9-7.9-7.9-7.9" fill="none" stroke="currentColor" stroke-miterlimit="10"/></g></symbol><symbol id="right" viewBox="0 0 24 24"><g class="nc-icon-wrapper" stroke="none"><path fill="none" stroke="currentColor" stroke-miterlimit="10" d="M7 22l10-10L7 2"/></g></symbol><symbol id="attach" viewBox="0 0 24 24"><g class="nc-icon-wrapper" stroke="none"><g fill="none" stroke="currentColor" stroke-miterlimit="10"><path d="M13.2 10.8c1.9 1.9 1.9 5.1 0 7.2l-3 3c-1.9 1.9-5.1 1.9-7.2 0-1.9-1.9-1.9-5.1 0-7.2l2.4-2.4"/><path d="M10.8 13.2c-1.9-1.9-1.9-5.1 0-7.2l3-3c1.9-1.9 5.1-1.9 7.2 0 1.9 1.9 1.9 5.1 0 7.2l-2.4 2.4"/></g></g></symbol><symbol id="user" viewBox="0 0 24 24"><g class="nc-icon-wrapper" stroke="none"><path fill="none" stroke="currentColor" stroke-miterlimit="10" d="M12 12c2.9 0 5.2-2.3 5.2-5.2 0-2.9-2.3-5.2-5.2-5.2S6.8 4 6.8 6.8C6.8 9.7 9.1 12 12 12zm0 2.6c-3.4 0-10.3 1.7-10.3 5.2v2.6h20.7v-2.6c-.1-3.5-7-5.2-10.4-5.2z"/></g></symbol><symbol id="adjust" viewBox="0 0 24 24"><g class="nc-icon-wrapper" stroke="none"><g transform="translate(.5 .5)" fill="none" stroke="currentColor" stroke-miterlimit="10"><circle cx="11.5" cy="11.5" r="2.7"/><path d="M21.5 12.9v-2.7l-2.9-.2c-.2-.8-.5-1.6-.9-2.3l1.9-2.2-1.9-1.9-2.2 1.9c-.7-.4-1.5-.8-2.3-.9L13 1.7h-2.7l-.4 2.7c-.8.2-1.6.5-2.3 1L5.4 3.5 3.5 5.4l1.9 2.2c-.5.7-.8 1.5-1 2.3l-2.9.2v2.7l2.9.2c.2.8.5 1.6.9 2.3l-1.9 2.2 1.9 1.9 2.2-1.9c.7.4 1.5.8 2.3.9l.2 2.9h2.7l.2-2.9c.8-.2 1.6-.5 2.3-.9l2.2 1.9 1.9-1.9-1.9-2.2c.4-.7.8-1.5.9-2.3l3.2-.1z"/></g></g></symbol><symbol id="wishlist" viewBox="0 0 24 24"><g class="nc-icon-wrapper" stroke="none"><path fill="none" stroke="currentColor" stroke-miterlimit="10" d="M21.1 4.1c-2.3-2.3-6-2.3-8.4 0-.3.3-.5.6-.7.9-.2-.3-.5-.6-.7-.9-2.3-2.3-6-2.3-8.4 0s-2.3 6 0 8.4l9.1 9.1 9.1-9.1c2.3-2.3 2.3-6.1 0-8.4z"/></g></symbol><symbol id="warning" viewBox="0 0 24 24"><g class="nc-icon-wrapper" stroke="none"><g fill="none" stroke="currentColor" stroke-miterlimit="10"><circle cx="12" cy="12" r="10.9"/><path d="M12 4.1v11.3m0 2.6v1.6"/></g></g></symbol><symbol id="exit" viewBox="0 0 24 24"><g class="nc-icon-wrapper" stroke="none"><path fill="none" stroke="currentColor" stroke-miterlimit="10" d="M6.3 1.2H1.4v21.6h4.9m1-10.8h15.3m-5.4 5.4l5.4-5.4-5.4-5.4"/></g></symbol><symbol id="upload" viewBox="0 0 24 24"><g class="nc-icon-wrapper" stroke="none"><path fill="none" stroke="currentColor" stroke-miterlimit="10" d="M1.2 17.9v4.9h21.7v-4.9"/><path d="M12.1 16.9V1.6M17.5 7l-5.4-5.4L6.6 7" fill="none" stroke="currentColor" stroke-miterlimit="10"/></g></symbol><symbol id="up" viewBox="0 0 24 24"><g class="nc-icon-wrapper" stroke="none"><path fill="none" stroke="currentColor" stroke-miterlimit="10" d="M22 17L12 7 2 17"/></g></symbol><symbol id="check" viewBox="0 0 24 24"><g class="nc-icon-wrapper" stroke="none"><path fill="none" stroke="currentColor" stroke-miterlimit="10" d="M1.6 1.6h20.9v20.9H1.6z"/></g></symbol><symbol id="trash" viewBox="0 0 24 24"><g class="nc-icon-wrapper" stroke="none"><path d="M19.7 8.1v14.5H4.3V8.1M1.4 5.2h21.2M12 11v7.3M8.1 11v7.3m7.8-7.3v7.3M8.1 5.2V1.4h7.8v3.8" fill="none" stroke="currentColor" stroke-miterlimit="10"/></g></symbol><symbol id="success" viewBox="0 0 24 24"><g class="nc-icon-wrapper" stroke="none"><circle fill="none" stroke="currentColor" stroke-miterlimit="10" cx="12" cy="12" r="10.9"/><path fill="none" stroke="currentColor" stroke-miterlimit="10" d="M7.1 13.5l3.3 3.2 6.5-9.4"/></g></symbol><symbol id="star" viewBox="0 0 24 24"><g class="nc-icon-wrapper" stroke="none"><path fill="none" stroke="currentColor" stroke-miterlimit="10" d="M12 2.3l3.2 6.4 7 1-5.1 5 1.2 7-6.3-3.3-6.3 3.3 1.2-7-5.1-5 7-1z"/></g></symbol><symbol id="send" viewBox="0 0 24 24"><g class="nc-icon-wrapper" stroke="none"><path d="M21.8 2.2L10.5 13.5M21.8 2.2L15 21.8l-4.5-8.3L2.2 9z" fill="none" stroke="currentColor" stroke-miterlimit="10"/></g></symbol><symbol id="search" viewBox="0 0 24 24"><g class="nc-icon-wrapper" stroke="none"><g transform="translate(.5 .5)" fill="none" stroke="currentColor" stroke-miterlimit="10"><path d="M21.8 21.8l-5.5-5.5"/><circle cx="10" cy="10" r="8.9"/></g></g></symbol><symbol id="check_active" viewBox="0 0 24 24"><g class="nc-icon-wrapper" stroke="none"><path fill="none" stroke="currentColor" stroke-miterlimit="10" d="M1.6 1.6h20.9v20.9H1.6z"/><path fill="none" stroke="currentColor" stroke-miterlimit="10" d="M5.9 13.3l4.1 4 8.1-11.8"/></g></symbol><symbol id="review" viewBox="0 0 24 24"><g class="nc-icon-wrapper" stroke="none"><g fill="none" stroke="currentColor" stroke-miterlimit="10"><path d="M18.3 7.4h4.3V18h-2.9v3.5L14.8 18h-4.2"/><path d="M18.3 2.5H1.4v12H5v4.9l5.6-4.9h7.7z"/></g></g></symbol><symbol id="radio_active" viewBox="0 0 24 24"><g class="nc-icon-wrapper" stroke="none"><g stroke="currentColor" stroke-miterlimit="10"><circle fill="none" cx="12" cy="12" r="10.9"/><path d="M12 5.5c-3.6 0-6.5 2.9-6.5 6.5s2.9 6.5 6.5 6.5 6.5-2.9 6.5-6.5-2.9-6.5-6.5-6.5z"/></g></g></symbol><symbol id="radio" viewBox="0 0 24 24"><g class="nc-icon-wrapper" stroke="none"><circle fill="none" stroke="currentColor" stroke-miterlimit="10" cx="12" cy="12" r="10.9"/></g></symbol><symbol id="print" viewBox="0 0 24 24"><g class="nc-icon-wrapper" stroke="none"><g fill="none" stroke="currentColor" stroke-miterlimit="10"><path d="M18.8 8.4V3.3H5.4v5.1m14.4 0H4.2C2.3 8.4.8 9.9.8 11.8v6.7h6.7v-3.4h8.9v3.4h6.7v-6.7c.1-1.9-1.4-3.4-3.3-3.4z"/><path d="M7.5 18.4v2.3h9v-2.3"/></g></g></symbol><symbol id="plus" viewBox="0 0 24 24"><g class="nc-icon-wrapper" stroke="none"><path fill="none" stroke="currentColor" stroke-miterlimit="10" d="M23 12H1M12 1v22"/></g></symbol><symbol id="placeholder" viewBox="0 0 24 24"><g class="nc-icon-wrapper" stroke="none"><g fill="none" stroke="currentColor" stroke-miterlimit="10"><path d="M12 1.5c-4.8 0-8.6 3.9-8.6 8.6 0 .5 0 1.1.2 1.6 0 0 0 .1.1.3.1.6.3 1.2.6 1.7.9 2.2 3 5.6 7.5 9.2-.1.1.1.1.2.1s.3 0 .4-.1c4.5-3.6 6.5-7 7.5-9.2.3-.5.4-1.1.6-1.7 0-.2.1-.3.1-.3.1-.5.2-1.1.2-1.6-.2-4.8-4-8.6-8.8-8.6z"/><circle cx="12" cy="9.9" r="3.7"/></g></g></symbol><symbol id="phone" viewBox="0 0 24 24"><g class="nc-icon-wrapper" stroke="none"><path fill="none" stroke="currentColor" stroke-miterlimit="10" d="M17.1 14.3l-2.8 2.8-7.4-7.4 2.8-2.8L5 2.3 2.3 5c0 9.2 7.5 16.7 16.7 16.7l2.8-2.8-4.7-4.6z"/></g></symbol><symbol id="ok" viewBox="0 0 24 24"><g class="nc-icon-wrapper" stroke="none"><path fill="none" stroke="currentColor" stroke-miterlimit="10" d="M1.9 15l6.7 6.7L22.1 2.3"/></g></symbol><symbol id="minus" viewBox="0 0 24 24"><g class="nc-icon-wrapper" stroke="none"><path fill="none" stroke="currentColor" stroke-miterlimit="10" d="M23 12H1"/></g></symbol><symbol id="menu" viewBox="0 0 24 24"><g class="nc-icon-wrapper" stroke="none"><path fill="none" stroke="currentColor" stroke-miterlimit="10" d="M23 4.4H1m22 15.1H1M23 12H1"/></g></symbol><symbol id="mail" viewBox="0 0 24 24"><g class="nc-icon-wrapper" stroke="none"><g fill="none" stroke="currentColor" stroke-miterlimit="10"><path d="M1.8 3.6L12 12.9l10.2-9.3"/><path d="M1.8 3.6h20.5v16.8H1.8z"/></g></g></symbol><symbol id="lock" viewBox="0 0 24 24"><g class="nc-icon-wrapper" stroke="none"><g fill="none" stroke="currentColor" stroke-miterlimit="10"><path d="M16.6 6.5c0-2.5-2.1-4.6-4.6-4.6-2.5-.1-4.6 2-4.6 4.6v2.8"/><path d="M4.6 9.2h14.8v12.9H4.6z"/></g></g></symbol><symbol id="list" viewBox="0 0 24 24"><g class="nc-icon-wrapper" stroke="none"><path fill="none" stroke="currentColor" stroke-miterlimit="10" d="M18.8 12H5.2"/></g></symbol><symbol id="left" viewBox="0 0 24 24"><g class="nc-icon-wrapper" stroke="none"><path fill="none" stroke="currentColor" stroke-miterlimit="10" d="M17 2L7 12l10 10"/></g></symbol><symbol id="info" viewBox="0 0 24 24"><g class="nc-icon-wrapper" stroke="none"><g fill="none" stroke="currentColor" stroke-miterlimit="10"><circle cx="12" cy="12" r="10.9"/><path d="M12 19.9V8.6M12 6V4.4"/></g></g></symbol><symbol id="hand_up" viewBox="0 0 24 24"><g class="nc-icon-wrapper" stroke="none"><g fill="none" stroke="currentColor" stroke-miterlimit="10"><path d="M5.6 20.5L8 21.7c1.2.6 2.6.9 4 .9h7.1c1.2 0 2.3-.9 2.5-2.1l1.1-8.5c0-1.2-.9-2.1-2.1-2.1h-5.7V6.3c0-2.1-1.3-4.2-3.3-4.8-.4-.1-.9.2-.9.7v4.1l-5 6.4"/><path d="M1.4 10.5h4.3v12.1H1.4z"/></g></g></symbol><symbol id="hand_down" viewBox="0 0 24 24"><g class="nc-icon-wrapper" stroke="none"><g fill="none" stroke="currentColor" stroke-miterlimit="10"><path d="M5.6 11.3l5 6.4v4.1c0 .5.5.9.9.7 2.1-.6 3.3-2.8 3.3-4.8v-3.5h5.7c1.2 0 2.1-.9 2.1-2.1l-1-8.6c-.2-1.3-1.3-2.1-2.5-2.1H12c-1.4 0-2.8.4-4 .9L5.6 3.5"/><path d="M1.4 1.4h4.3v12.1H1.4z"/></g></g></symbol><symbol id="cart" viewBox="0 0 24 24"><g class="nc-icon-wrapper" stroke="none"><g transform="translate(.5 .5)" fill="none" stroke="currentColor" stroke-miterlimit="10"><circle cx="7.5" cy="20.1" r="2.2"/><circle cx="19.8" cy="20.1" r="2.2"/><path d="M4.5 4.3H22l-1.5 10.8H6.1L3.9.7H1"/></g></g></symbol><symbol id="error" viewBox="0 0 24 24"><g class="nc-icon-wrapper" stroke="none"><circle fill="none" stroke="currentColor" stroke-miterlimit="10" cx="12" cy="12" r="10.9"/><path fill="none" stroke="currentColor" stroke-miterlimit="10" d="M16 16L8 8m8 0l-8 8"/></g></symbol><symbol id="edit" viewBox="0 0 24 24"><g class="nc-icon-wrapper" stroke="none"><path d="M13 5.7l5.3 5.3M7.6 21.7l-6.4 1.1 1.1-6.4L16.8 1.9c.8-.8 2.2-.8 3 0l2.3 2.3c.8.8.8 2.2 0 3L7.6 21.7z" fill="none" stroke="currentColor" stroke-miterlimit="10"/></g></symbol><symbol id="download" viewBox="0 0 24 24"><g class="nc-icon-wrapper" stroke="none"><path fill="none" stroke="currentColor" stroke-miterlimit="10" d="M1.2 17.9v4.9h21.7v-4.9M12.1 1.6v15.3m-5.5-5.4l5.5 5.4 5.4-5.4"/></g></symbol><symbol id="down_sm" viewBox="0 0 24 24"><g class="nc-icon-wrapper" stroke="none"><path fill="none" stroke="currentColor" stroke-linecap="round" stroke-miterlimit="10" d="M7.7 10.9l4.3 4.2 4.3-4.2"/></g></symbol><symbol id="down" viewBox="0 0 24 24"><g class="nc-icon-wrapper" stroke="none"><path fill="none" stroke="currentColor" stroke-miterlimit="10" d="M2 7l10 10L22 7"/></g></symbol><symbol id="copy" viewBox="0 0 24 24"><g class="nc-icon-wrapper" stroke="none"><g fill="none" stroke="currentColor" stroke-miterlimit="10"><path d="M18.3 5.7V1H2.6v19h3.5"/><path d="M16.3 4.3v5.1h5.1"/><path d="M16.3 4.3H6.1V23h15.3V9.4zM9.5 18.8H18m-8.5-4.3H18m-8.5-4.2h3.4"/></g></g></symbol><symbol id="close" viewBox="0 0 24 24"><g class="nc-icon-wrapper" stroke="none"><path fill="none" stroke="currentColor" stroke-miterlimit="10" d="M22.4 22.4L1.6 1.6m20.8 0L1.6 22.4"/></g></symbol><symbol id="bag" viewBox="0 0 24 24"><g class="nc-icon-wrapper" stroke="none"><g fill="none" stroke="currentColor" stroke-miterlimit="10"><path d="M21.5 23h-19L4.7 6.9h14.6z"/><path d="M8.3 9.8V4.7C8.3 2.7 9.9 1 12 1c2 0 3.7 1.6 3.7 3.7v5.1"/></g></g></symbol><symbol id="radio-2" viewBox="0 0 24 24"><g class="nc-icon-wrapper" stroke="none"><circle fill="none" stroke="currentColor" stroke-miterlimit="10" cx="12" cy="12" r="10.9"/></g></symbol><symbol id="twitter" viewBox="0 0 24 24"><g class="nc-icon-wrapper" stroke="none"><path d="M23.3 4.5c-.5.2-1.1.4-1.7.6.6-.6 1.2-1.2 1.4-2.1.1-.2-.2-.4-.4-.3-.8.5-1.5.8-2.4.9H20c-.2 0-.3-.1-.4-.2-.9-.7-2.1-1.2-3.4-1.2-.5 0-1.1.1-1.5.3C13 3 11.8 4.3 11.4 6c-.2.6-.2 1.2-.1 1.8V8c-3.8-.2-7.1-2-9.4-4.7-.1-.1-.3-.1-.4.1C1 4 .9 4.9.9 5.9c0 1.4.6 2.6 1.5 3.6-.4-.2-.9-.3-1.2-.5-.2-.1-.3 0-.3.2 0 2 1.2 3.8 2.9 4.7h-.2c-.3 0-.6 0-.9-.1-.2 0-.4.2-.3.3.6 1.8 2.1 3.2 4 3.5-1.5 1.1-3.3 1.5-5.2 1.5H.7c-.2 0-.3.1-.4.3 0 .2 0 .4.2.5 2 1.2 4.5 1.8 6.9 1.8 2.1 0 4.1-.4 6-1.2 1.7-.8 3.1-1.8 4.4-3.2 1.2-1.2 2-2.8 2.6-4.5.6-1.5.9-3.3.9-4.9v-.1c0-.3.1-.5.3-.7.8-.6 1.5-1.4 2-2.3.1 0-.1-.3-.3-.3z" class="nc-icon-wrapper" stroke="none"/></g></symbol><symbol id="facebook" viewBox="0 0 24 24"><g class="nc-icon-wrapper" stroke="none"><path d="M13.9 13.1h3.6l.5-4.3h-4.1v-3c0-.9.7-1.5 1.5-1.5H18V.4h-3.7c-2.6 0-4.7 2.1-4.7 4.7v3.6H6V13h3.6v10.7H14V13.1z" class="nc-icon-wrapper" stroke="none"/></g></symbol><symbol id="youtube" viewBox="0 0 24 24"><g class="nc-icon-wrapper" stroke="none"><path d="M18.7 3.8H5.2C2.4 3.8.3 5.9.3 8.6v6.8c0 2.7 2.1 4.9 4.9 4.9h13.6c2.7 0 4.9-2.1 4.9-4.9V8.6c-.1-2.7-2.2-4.8-5-4.8zm-3.2 8.5l-6.4 3c-.2.1-.4 0-.4-.2V8.9c0-.2.2-.3.4-.2l6.4 3.2c.2.1.2.3 0 .4z" class="nc-icon-wrapper" stroke="none"/></g></symbol><symbol id="instagram" viewBox="0 0 24 24"><g class="nc-icon-wrapper" stroke="none"><path d="M16.8.4H7.3C3.4.4.3 3.5.3 7.3v9.5c0 3.8 3.1 6.9 6.9 6.9h9.5c3.8 0 6.9-3.1 6.9-6.9V7.3c.1-3.8-3-6.9-6.8-6.9zm4.6 16.4c0 2.5-2 4.6-4.6 4.6H7.3c-2.5 0-4.6-2-4.6-4.6V7.3c0-2.5 2-4.6 4.6-4.6h9.5c2.5 0 4.6 2 4.6 4.6v9.5z"/><path d="M12.1 6c-3.3 0-6 2.7-6 6s2.7 6 6 6 6-2.7 6-6-2.8-6-6-6zm0 9.7c-2 0-3.7-1.7-3.7-3.7s1.7-3.7 3.7-3.7 3.7 1.7 3.7 3.7-1.7 3.7-3.7 3.7z"/><circle cx="18.1" cy="6" r="1.5"/></g></symbol><symbol id="linkedin" viewBox="0 0 24 24"><g class="nc-icon-wrapper" stroke="none"><path d="M3.5.8C5 .8 6.1 2 6.1 3.6S4.8 6.3 3.3 6.2C1.8 6.2.7 5.1.7 3.6S2 .8 3.5.8zM5 23.2H1.8c-.4 0-.7-.3-.7-.7V8.9c0-.4.3-.7.7-.7h3.1c.4 0 .7.3.7.7v13.5c.2.5-.1.8-.6.8zM23.3 13c0-2.8-2.3-5.1-5.1-5.1h-.8c-1.5 0-3 .8-3.8 2-.1.1-.2.3-.2.4V8.6c0-.2-.1-.3-.3-.3h-4c-.2 0-.3.1-.3.3v14.3c0 .2.1.3.3.3h4.1c.2 0 .3-.1.3-.3v-8.3c0-1.5 1.1-2.6 2.5-2.6.7 0 1.5.3 1.8.7.5.5.7 1.1.7 1.8v8.4c0 .2.1.3.3.3h4.1c.2 0 .3-.1.3-.3l.1-9.9z" class="nc-icon-wrapper" stroke="none"/></g></symbol><symbol id="pinterest" viewBox="0 0 24 24"><g class="nc-icon-wrapper" stroke="none"><path d="M23.6 12.3C23.8 5.6 18.4.2 11.7.3 5.5.4.4 5.6.4 12c0 4.6 2.7 8.5 6.6 10.4.2.1.5-.1.5-.3 0-.8 0-1.5.2-2.3.2-.7.7-3.1 1.1-4.7.2-.7.2-1.4.1-2.3-.1-.3-.1-.6-.1-.9 0-1.7.9-3 2.3-3 1.1 0 1.5.8 1.5 1.7 0 1.1-.7 2.6-1.1 4.1-.3 1.3.6 2.3 1.8 2.3 2.3 0 3.9-2.3 3.9-5.6 0-3-2.1-5-5.2-5-3.5 0-5.6 2.6-5.6 5.3 0 1.1.4 2.3.9 2.8.1.1.1.2.1.4-.1.4-.3 1.2-.4 1.4-.1.2-.2.3-.4.2-1.5-.7-2.5-3-2.5-4.7 0-3.9 2.9-7.5 8.2-7.5 4.3 0 7.6 3.1 7.6 7.2 0 4.3-2.7 7.6-6.4 7.6-.9 0-2-.4-2.5-.9-.2-.2-.5-.1-.5.1l-.6 2.3c-.2.7-.6 1.5-.9 2.3-.1.2 0 .4.2.5.9.2 2 .4 3 .4 6-.3 11.2-5.5 11.4-11.5z" class="nc-icon-wrapper" stroke="none"/></g></symbol><symbol id="whatsapp" viewBox="0 0 24 24"><g class="nc-icon-wrapper" stroke="none"><path d="M11.4.4C5.2.7.4 5.8.4 11.9c0 1.8.5 3.7 1.2 5.2l-1.2 6c-.1.3.2.6.6.5l5.8-1.4c1.5.8 3.2 1.2 4.9 1.2 6.3.1 11.6-4.9 11.8-11.2C23.8 5.5 18.3.1 11.4.4zm7 18c-1.7 1.7-4 2.6-6.4 2.6-1.5 0-2.8-.3-4-.9l-.8-.4-3.6.9.8-3.7L4 16c-.7-1.2-.9-2.6-.9-4.1 0-2.4.9-4.7 2.6-6.4 1.7-1.7 4-2.6 6.4-2.6s4.7.9 6.4 2.6c1.7 1.7 2.6 4 2.6 6.4-.1 2.5-1 4.7-2.7 6.5z"/><path d="M17.5 14.4l-2.3-.7c-.3-.1-.6 0-.9.2l-.6.6c-.2.2-.6.3-.9.2-1.1-.4-3.3-2.4-3.9-3.4-.2-.3-.1-.7.1-.9l.5-.6c.5-.2.5-.4.4-.7l-1-2.2c-.2-.5-.9-.7-1.3-.3-.6.5-1.3 1.2-1.4 2.2-.2 1.5.5 3.6 3 6 2.9 2.7 5.4 3.1 6.8 2.7.9-.2 1.5-1.1 2-1.7.3-.6.1-1.3-.5-1.4z"/></g></symbol></svg>