<svg xmlns="http://www.w3.org/2000/svg" style="display: none;"><symbol id="icon_adjust" viewBox="0 0 24 24"><g class="nc-icon-wrapper" stroke="none"><path d="M22.8 9.5l-1.7-.3c-.2-.6-.4-1.1-.7-1.6l1-1.4c.4-.6.4-1.4-.2-1.9l-1.5-1.5c-.3-.3-.7-.4-1-.4-.3 0-.6.1-.9.3l-1.4 1c-.5-.3-1.1-.5-1.7-.7l-.3-1.7C14.4.5 13.7 0 13 0h-2.1c-.7 0-1.3.5-1.5 1.2l-.3 1.7c-.5.2-1.1.4-1.6.7l-1.4-1c-.2-.1-.5-.2-.8-.2-.4 0-.8.2-1 .4L2.7 4.3c-.5.5-.6 1.3-.1 1.9l1 1.4c-.3.5-.5 1.1-.7 1.7l-1.7.2C.5 9.7 0 10.3 0 11v2.1c0 .7.5 1.3 1.2 1.5l1.7.3c.2.6.4 1.1.7 1.6l-1 1.4c-.4.6-.4 1.4.2 1.9l1.5 1.5c.3.3.7.4 1 .4.3 0 .6-.1.9-.3l1.4-1c.5.3 1 .5 1.6.7l.3 1.7c.1.7.7 1.2 1.5 1.2h2.1c.7 0 1.3-.5 1.5-1.2l.3-1.7c.6-.2 1.1-.4 1.6-.7l1.4 1c.3.2.6.3.9.3.4 0 .8-.2 1-.4l1.5-1.5c.5-.5.6-1.3.2-1.9l-1-1.4c.3-.5.5-1.1.7-1.6l1.7-.3c.7-.1 1.2-.7 1.2-1.5V11c-.1-.8-.6-1.4-1.3-1.5zm-.1 3.6c0 .1 0 .1-.1.1l-2.1.4c-.3 0-.5.2-.5.5-.2.7-.5 1.4-.9 2.1-.1.2-.1.5 0 .7l1.2 1.7v.2l-1.5 1.5h-.2l-1.7-1.2c-.2-.2-.5-.2-.7 0-.7.4-1.4.7-2.1.9-.3.1-.5.3-.5.5l-.4 2.1c0 .1-.1.1-.1.1H11c-.1 0-.1 0-.1-.1l-.4-2.1c0-.3-.2-.5-.5-.5-.7-.2-1.4-.5-2.1-.8-.1-.2-.2-.2-.3-.2-.1 0-.3 0-.4.1l-1.8 1.2h-.2l-1.5-1.5s-.1-.1 0-.2L5 16.9c.2-.2.2-.5 0-.7-.4-.7-.7-1.4-.9-2.1-.1-.3-.3-.5-.5-.5l-2.1-.4c-.1 0-.1-.1-.1-.1V11c0-.1 0-.1.1-.1l2.1-.4c.3 0 .5-.2.5-.5.2-.7.5-1.4.9-2.1.1-.2.1-.5 0-.7L3.7 5.4v-.2l1.5-1.5h.2L7.1 5c.2.2.5.2.7 0 .7-.4 1.4-.7 2.1-.9.3-.1.5-.3.5-.5l.4-2.1c0-.1.1-.1.1-.1H13c.1 0 .1 0 .1.1l.4 2.1c0 .3.2.5.5.5.8.2 1.5.5 2.2.9.2.1.5.1.7 0l1.7-1.2h.2l1.5 1.5s.1.1 0 .2l-1.2 1.7c-.2.2-.2.5 0 .7.4.7.7 1.4.9 2.1.1.3.3.5.5.5l2.1.4c.1 0 .1.1.1.1v2.1z"/><path d="M12 6.8c-2.9 0-5.2 2.3-5.2 5.2s2.3 5.2 5.2 5.2 5.2-2.3 5.2-5.2-2.3-5.2-5.2-5.2zm0 9c-2.1 0-3.8-1.7-3.8-3.8S9.9 8.2 12 8.2s3.8 1.7 3.8 3.8-1.7 3.8-3.8 3.8z"/></g></symbol><symbol id="icon_bag" viewBox="0 0 24 24"><g class="nc-icon-wrapper" stroke="none"><path d="M21.6 20.7L20.2 5.3c0-.3-.3-.6-.7-.6h-2.8C16.7 2.1 14.6 0 12 0S7.3 2.1 7.3 4.7H4.4c-.3 0-.6.3-.7.6L2.4 20.7v.1C2.4 22.6 4 24 6 24h12c2 0 3.6-1.4 3.6-3.3 0 .1 0 .1 0 0zM12 1.3c1.9 0 3.4 1.5 3.4 3.3H8.6c0-1.8 1.5-3.3 3.4-3.3zm6 21.4H6c-1.2 0-2.3-.8-2.3-1.8L5 6h2.2v2c0 .4.3.7.7.7.4 0 .7-.3.7-.7V6h6.8v2c0 .4.3.7.7.7.4 0 .7-.3.7-.7V6H19l1.3 14.8c0 1.1-1.1 1.9-2.3 1.9z"/></g></symbol><symbol id="icon_check" viewBox="0 0 24 24"><g class="nc-icon-wrapper" stroke="none"><path d="M20.6 1C21.9 1 23 2.1 23 3.5v16.9c0 1.4-1.1 2.5-2.4 2.5H3.4c-1.3.1-2.4-1-2.4-2.4v-17C1 2.1 2.1 1 3.4 1h17.2M3.4 21.8h17.1c.7 0 1.3-.6 1.3-1.4V3.5c0-.8-.6-1.4-1.3-1.4H3.4c-.7 0-1.3.6-1.3 1.4v16.9c0 .8.6 1.4 1.3 1.4"/></g></symbol><symbol id="icon_checkactive" viewBox="0 0 24 24"><g class="nc-icon-wrapper" stroke="none"><path d="M20.6 1C21.9 1 23 2.1 23 3.5v16.9c0 1.4-1.1 2.5-2.4 2.5H3.4c-1.3.1-2.4-1-2.4-2.4v-17C1 2.1 2.1 1 3.4 1h17.2M3.4 21.8h17.1c.7 0 1.3-.6 1.3-1.4V3.5c0-.8-.6-1.4-1.3-1.4H3.4c-.7 0-1.3.6-1.3 1.4v16.9c0 .8.6 1.4 1.3 1.4"/><path d="M10.7 18.4c-.2 0-.3-.1-.5-.2l-4.4-4.4c-.3-.3-.3-.7 0-.9.3-.3.7-.3.9 0l3.8 3.8L17.1 6c.2-.3.6-.4.9-.2.3.2.4.6.2.9l-7 11.4c-.1.1-.2.3-.5.3z"/></g></symbol><symbol id="icon_close" viewBox="0 0 24 24"><g class="nc-icon-wrapper" stroke="none"><path d="M.7.1C.5.1.3.2.2.3c-.3.3-.3.7 0 1L10.9 12 .2 22.6c-.3.3-.3.7 0 1 .3.3.7.3 1 0L12 12.9l10.8 10.8c.3.3.7.3 1 0 .1-.1.2-.3.2-.5s-.1-.4-.2-.5L13.1 12 23.8 1.4c.1-.2.2-.4.2-.6 0-.2-.1-.4-.2-.5-.3-.3-.7-.3-1 0L12 11.1 1.2.3C1.1.2.9.1.7.1z"/></g></symbol><symbol id="icon_copy" viewBox="0 0 24 24"><g class="nc-icon-wrapper" stroke="none"><path d="M15.6 4.2H4.4c-1 0-1.9.9-1.9 1.9v16c0 1 .9 1.9 1.9 1.9h11.2c1 0 1.9-.9 1.9-1.9v-16c-.1-1.1-.9-1.9-1.9-1.9zm.5 17.9c0 .3-.3.6-.6.6H4.4c-.3 0-.6-.3-.6-.6v-16c0-.3.3-.6.6-.6h11.2c.3 0 .6.3.6.6v16z"/><path d="M19.8 0H8.7c-1 0-1.9.9-1.9 1.9 0 .4.3.7.7.7.4 0 .7-.3.7-.7 0-.3.3-.6.6-.6H20c.3 0 .6.3.6.6v16c0 .3-.3.6-.6.6-.4 0-.7.3-.7.7 0 .4.3.7.7.7 1 0 1.9-.9 1.9-1.9V2c-.2-1.1-1-2-2.1-2z"/></g></symbol><symbol id="icon_down" viewBox="0 0 24 24"><g class="nc-icon-wrapper" stroke="none"><path d="M12 16.7L1.2 5.9c-.3-.3-.7-.3-1 0s-.3.7 0 1l11.3 11.3c.3.3.7.3 1 0L23.8 6.8c.1-.1.2-.3.2-.5s-.1-.3-.2-.4c-.3-.3-.7-.3-1 0L12 16.7z"/></g></symbol><symbol id="icon_download" viewBox="0 0 24 24"><g class="nc-icon-wrapper" stroke="none"><path d="M22.9 12.3c-.4 0-.7.3-.7.7v6c0 1.6-1.3 3-3 3H4.8c-1.6 0-3-1.3-3-3v-6.1c0-.4-.3-.7-.7-.7s-.7.3-.7.7V19c0 2.4 1.9 4.3 4.3 4.3h14.5c2.4 0 4.3-1.9 4.3-4.3v-6c.1-.4-.2-.7-.6-.7z"/><path d="M11.6 18c.1.1.3.2.5.2s.3-.1.5-.2l4.2-4.2c.3-.3.3-.7 0-.9s-.7-.3-.9 0L12.8 16V2.5c0-.4-.3-.7-.7-.7s-.7.3-.7.7v13.4l-3.1-3.1c-.3-.3-.7-.3-.9 0-.3.3-.3.7 0 .9l4.2 4.3z"/></g></symbol><symbol id="icon_edit" viewBox="0 0 24 24"><g class="nc-icon-wrapper" stroke="none"><path d="M22.4 1.6c-2.1-2.1-5.4-2.1-7.5 0L1.2 15.3c-.1.1-.2.2-.2.4l-1 7.5c0 .2 0 .4.2.6.1.1.3.2.5.2h.1l4.5-.6c.4-.1.7-.4.6-.8 0-.4-.4-.6-.8-.6l-3.6.5.7-5.3 5.5 5.5c.2.2.3.3.5.3s.4-.1.5-.2L22.4 9c1-1 1.6-2.3 1.6-3.7s-.6-2.7-1.6-3.7zm-7.2 1.6l2.3 2.3L5 18.1l-2.3-2.3L15.2 3.2zm-7 18.1L6 19.1 18.5 6.5l2.3 2.3L8.2 21.3zM21.7 7.8l-5.5-5.5c.7-.6 1.6-.9 2.5-.9 1 0 2 .4 2.8 1.1s1.1 1.7 1.1 2.8c0 .9-.3 1.8-.9 2.5z"/></g></symbol><symbol id="icon_error" viewBox="0 0 24 24"><g class="nc-icon-wrapper" stroke="none"><path d="M20.8 3.5C18.6 1.2 15.6 0 12.4 0S6.1 1.2 3.9 3.5.4 8.8.4 12s1.2 6.2 3.5 8.5S9.2 24 12.4 24s6.2-1.2 8.5-3.5 3.5-5.3 3.5-8.5-1.3-6.2-3.6-8.5zm-.9 16c-2 2-4.7 3.1-7.5 3.1s-5.5-1.1-7.5-3.1C.8 15.4.8 8.6 4.9 4.5c2-2 4.7-3.1 7.5-3.1s5.5 1.1 7.5 3.1c4.1 4.1 4.1 10.9 0 15z"/><path d="M18 7c-.3-.3-.7-.3-1 0l-4.3 4.3L8.4 7c-.3-.3-.7-.3-1 0-.3.3-.3.7 0 1l4.3 4.3-4.3 4.3c-.3.3-.3.7 0 1 .1.1.3.2.5.2s.3-.1.5-.2l4.3-4.3 4.3 4.3c.1.1.3.2.5.2s.3-.1.5-.2c.3-.3.3-.7 0-1l-4.3-4.3L18 8c.2-.3.2-.7 0-1z"/></g></symbol><symbol id="icon_exit" viewBox="0 0 24 24"><g class="nc-icon-wrapper" stroke="none"><path d="M12.1 22.6H5.9c-1.7 0-3.1-1.4-3.1-3.1v-15c0-1.7 1.4-3.1 3.1-3.1h6.4c.4 0 .7-.3.7-.7s-.4-.7-.8-.7H5.9C3.4 0 1.4 2 1.4 4.5v15.1c0 2.5 2 4.5 4.5 4.5h6.3c.4 0 .7-.3.7-.7-.1-.5-.4-.8-.8-.8z"/><path d="M23.4 11.5L19 7.1c-.3-.3-.7-.3-1 0-.3.3-.3.7 0 1l3.2 3.2h-14c-.4 0-.7.3-.7.7 0 .4.3.7.7.7h14L18 15.9c-.3.3-.3.7 0 1 .1.1.3.2.5.2s.4-.1.5-.2l4.4-4.4c.3-.3.3-.7 0-1z"/></g></symbol><symbol id="icon_hand_down" viewBox="0 0 24 24"><g class="nc-icon-wrapper" stroke="none"><path d="M14.2 23c.9-.7 1.4-1.8 1.4-3.4v-3.7h5.2c1.8 0 3.3-1.5 3.3-3.3v-.2l-1.4-8.6c-.3-2.1-1.7-3.3-4-3.3H8.5C6.7.5 5.2 2 5.2 3.8v9.6c0 .3-.2.5-.5.5H1.8c-.3 0-.5-.2-.5-.5V3.2c0-.3.2-.5.5-.5h1.6c.4-.1.6-.3.6-.7s-.2-.6-.6-.6H1.8c-1 0-1.7.8-1.7 1.7v10.2c0 1 .8 1.7 1.7 1.7h2.8c.7 0 1.3-.4 1.5-1 0 0 .1 0 .1.1.2 0 4 1.2 4 4.5v4.2c0 .3.2.5.4.6.2 0 2.2.6 3.6-.4zM6.6 13h-.3V3.8c0-1.2 1-2.1 2.1-2.1h10.3c1.7 0 2.6.7 2.8 2.2l1.4 8.6v.1c0 1.2-1 2.1-2.1 2.1H15c-.3 0-.6.3-.6.6v4.3c0 1.2-.3 2-.9 2.4-.6.5-1.5.4-2 .3v-3.7c0-4.2-4.7-5.5-4.9-5.6z"/></g></symbol><symbol id="icon_hand_up" viewBox="0 0 24 24"><g class="nc-icon-wrapper" stroke="none"><path d="M10.6.6c-.2.1-.4.3-.4.6v4.2c0 3.3-3.8 4.4-4 4.5 0 0-.1 0-.1.1-.3-.6-.9-1-1.5-1H1.7C.7 9 0 9.8 0 10.7v10.2c0 1 .8 1.7 1.7 1.7h1.6c.3 0 .6-.3.6-.6s-.3-.6-.6-.6H1.7c-.3 0-.5-.2-.5-.5V10.6c0-.3.2-.5.5-.5h2.8c.3 0 .5.2.5.5v9.6c0 1.8 1.5 3.3 3.3 3.3h10.2c2.3 0 3.7-1.2 4-3.3l1.4-8.6v-.2c0-1.8-1.5-3.3-3.3-3.3h-5.2V4.4c0-1.6-.5-2.7-1.4-3.4-1.3-1-3.3-.4-3.4-.4zm.8 4.8V1.7c.5-.1 1.4-.1 2 .3.6.4.9 1.2.9 2.4v4.3c0 .3.3.6.6.6h5.8c1.2 0 2.1 1 2.1 2.1v.1l-1.4 8.6c-.2 1.5-1.1 2.2-2.8 2.2H8.4c-1.2 0-2.1-1-2.1-2.1V11h.3c.1-.1 4.8-1.4 4.8-5.6z"/></g></symbol><symbol id="icon_info" viewBox="0 0 24 24"><g class="nc-icon-wrapper" stroke="none"><path d="M12 8.5c.4 0 .7.3.7.7v10.2c0 .4-.3.7-.7.7s-.7-.3-.7-.7V9.2c0-.4.4-.7.7-.7zm0-4.6c.4 0 .7.3.7.7v.9c0 .4-.3.7-.7.7s-.7-.3-.7-.7v-.9c0-.4.4-.7.7-.7z"/><path d="M20.5 3.5C18.3 1.2 15.2 0 12 0S5.8 1.2 3.6 3.5 0 8.8 0 12s1.2 6.2 3.5 8.5S8.8 24 12 24s6.2-1.2 8.5-3.5S24 15.2 24 12s-1.2-6.2-3.5-8.5zm-.9 16c-2 2-4.7 3.1-7.5 3.1s-5.5-1.1-7.5-3.1C.5 15.4.5 8.6 4.6 4.5c2-2 4.7-3.1 7.5-3.1s5.5 1.1 7.5 3.1c4.1 4.1 4.1 10.9 0 15z"/></g></symbol><symbol id="icon_left" viewBox="0 0 24 24"><g class="nc-icon-wrapper" stroke="none"><path d="M7.3 12L18.1 1.2c.3-.3.3-.7 0-1-.3-.3-.7-.3-1 0L5.9 11.5c-.3.3-.3.7 0 1l11.3 11.3c.1.1.3.2.5.2s.3-.1.5-.2c.3-.3.3-.7 0-1L7.3 12z"/></g></symbol><symbol id="icon_list" viewBox="0 0 24 24"><g class="nc-icon-wrapper" stroke="none"><path d="M18.5 12.7h-13c-.4 0-.7-.3-.7-.7s.3-.7.7-.7h12.9c.4 0 .7.3.7.7s-.3.7-.6.7z"/></g></symbol><symbol id="icon_mail_sm" viewBox="0 0 24 24"><g class="nc-icon-wrapper" stroke="none"><path d="M19.7 6.4c-.4-.4-.9-.6-1.5-.6H6.1C5 5.7 4 6.7 4 7.9v8.3c0 1.2 1 2.1 2.1 2.1h12.1c1.2 0 2.1-1 2.1-2.1V7.9c.1-.6-.2-1.1-.6-1.5zM5.3 7.9c0-.5.4-.9.8-.9h12.1c.5 0 .9.4.9.9v8.3c0 .5-.4.8-.9.8H6.1c-.5 0-.9-.4-.9-.9V7.9z"/><path d="M17.5 14.9l-3.1-3 3.1-2.8c.3-.2.3-.6 0-.9-.2-.3-.7-.3-.9 0l-4.4 3.9-.7-.6-.1-.1-3.6-3.2C7.7 8 7.5 8 7.3 8s-.3.1-.4.2c-.2.1-.2.3-.2.5s.1.3.2.4l3.1 2.8-3.1 2.9c-.3.2-.3.7 0 .9.2.2.7.3.9 0l3.2-3 .7.7c.2.2.6.2.9 0l.8-.7 3.2 3c.1.1.3.2.4.2.2 0 .3-.1.5-.2.1-.1.2-.3.2-.5 0 0-.1-.2-.2-.3z"/></g></symbol><symbol id="icon_mail" viewBox="0 0 24 24"><g class="nc-icon-wrapper" stroke="none"><path d="M21.3 2.9H3.1C1.5 2.9.2 4.2.2 5.8v12.4c0 1.6 1.3 2.9 2.9 2.9h18.1c1.6 0 2.9-1.3 2.9-2.9V5.8c.1-1.6-1.2-2.9-2.8-2.9zm1.6 15.3c0 .9-.7 1.6-1.6 1.6H3.1c-.9 0-1.6-.7-1.6-1.6V5.8c0-.9.7-1.6 1.6-1.6h18.1c.9 0 1.6.7 1.6 1.6l.1 12.4z"/><path d="M15.3 11.8l5.9-5.3c.3-.2.3-.7 0-.9-.2-.3-.7-.3-.9 0l-8.1 7.3-1.6-1.4-.1-.1-6.4-5.8c-.3-.3-.7-.2-1 0-.2.3-.2.7.1 1l5.9 5.3-5.9 5.5c-.3.3-.3.7 0 .9.1.1.3.2.5.2s.3-.1.5-.2l6-5.6 1.6 1.5c.1.1.3.2.4.2s.3-.1.4-.2l1.7-1.5 6 5.7c.1.1.3.2.5.2s.4-.1.5-.2c.3-.3.2-.7 0-.9l-6-5.7z"/></g></symbol><symbol id="icon_menu" viewBox="0 0 24 24"><g class="nc-icon-wrapper" stroke="none"><path d="M23.3 5.2H.7c-.4 0-.7-.3-.7-.7 0-.4.3-.7.7-.7h22.6c.4 0 .7.3.7.7 0 .4-.3.7-.7.7zm0 7.5H.7c-.4 0-.7-.3-.7-.7s.3-.7.7-.7h22.6c.4 0 .7.3.7.7s-.3.7-.7.7zm0 7.5H.7c-.4 0-.7-.3-.7-.7s.3-.7.7-.7h22.6c.4 0 .7.3.7.7s-.3.7-.7.7z"/></g></symbol><symbol id="icon_minus" viewBox="0 0 24 24"><g class="nc-icon-wrapper" stroke="none"><path d="M23.3 12.7H.7c-.4 0-.7-.3-.7-.7s.3-.7.7-.7h22.6c.4 0 .7.3.7.7s-.3.7-.7.7z"/></g></symbol><symbol id="icon_ok" viewBox="0 0 24 24"><g class="nc-icon-wrapper" stroke="none"><path d="M23.7.1c-.1-.1-.2-.1-.4-.1s-.5.1-.6.3l-13 21.3-.4.7-.6-.6-7.5-7.5c-.2-.2-.3-.3-.5-.3s-.4.1-.5.2c-.1.2-.2.3-.2.5s.1.3.2.5l8.7 8.7c.1.1.3.2.5.2h.1c.2 0 .4-.1.5-.3L23.9 1c.2-.3.1-.7-.2-.9z"/><path d="M23.9 1L10 23.7c-.1.2-.3.3-.5.3h-.1c-.2 0-.4-.1-.5-.2L.2 15.1c-.1-.1-.2-.3-.2-.5s.1-.3.2-.5c.1-.1.3-.2.5-.2s.3.1.5.2l7.5 7.5.6.6.4-.7L22.7.3c.2-.2.4-.3.6-.3.1 0 .2 0 .4.1.3.2.4.6.2.9z"/></g></symbol><symbol id="icon_phone_sm" viewBox="0 0 24 24"><g class="nc-icon-wrapper" stroke="none"><path d="M16.8 13.8c-.8-.8-1.8-.8-2.6 0l-1 1-.1-.1c-.1-.1-.2-.1-.3-.2-1-.6-1.9-1.4-2.7-2.5-.4-.5-.6-.9-.8-1.3l.6-.6.3-.3c.8-.8.8-1.9 0-2.6l-1-1C9.1 6.1 9 6 9 5.9c-.3-.2-.5-.4-.7-.6-.7-.7-1.8-.7-2.5 0L4.6 6.5c-.5.5-.7 1-.8 1.7-.1 1 .2 2 .4 2.6.6 1.5 1.4 2.9 2.6 4.4 1.5 1.8 3.3 3.2 5.4 4.2.8.4 1.9.8 3 .9h.2c.8 0 1.5-.3 2.1-.9.2-.2.3-.4.5-.5h.1l.4-.4c.4-.4.6-.8.6-1.3s-.2-.9-.6-1.3l-1.7-2.1zM9.2 9c-.1 0-.1.1-.2.2-.3.3-.6.5-.8.8-.3.3-.3.7-.2.9.2.6.6 1.2 1.1 1.8.9 1.2 1.9 2.1 3 2.8.1.1.3.2.4.2.1.1.2.1.3.2.4.2.7.1 1-.2l1.2-1.2c.1-.1.2-.2.4-.2s.3.1.4.2l1.9 1.9c.3.3.3.5 0 .8h-.1v.1l-.3.3-.1.1-.7.7c-.3.3-.7.5-1.1.5h-.1c-1-.1-1.9-.4-2.6-.8-1.9-.9-3.5-2.2-4.9-3.9-1.1-1.4-1.9-2.6-2.4-4-.3-.8-.4-1.4-.4-2 0-.4.2-.6.4-.9l1.1-1.1c.3-.1.4-.2.6-.2.2 0 .3.1.4.2l.6.6L9.3 8c.3.3.3.5 0 .8l-.1.2zm5.7.1c.6.6 1 1.4 1.2 2.2.1.3.3.5.6.5h.1c.3-.1.6-.4.5-.7-.2-1.1-.7-2.1-1.5-2.9-.8-.8-1.8-1.3-2.9-1.5-.3-.1-.7.2-.7.5 0 .2 0 .3.1.5 0 .2.2.3.3.3.9.1 1.6.5 2.3 1.1z"/><path d="M17.7 6.3C16.4 5 14.8 4.1 13 3.8c-.3-.1-.7.2-.7.5-.1.3.2.7.5.7 1.5.3 2.9 1 4.1 2.1 1.1 1.1 1.8 2.5 2.1 4.1.1.3.3.5.6.5h.1c.2 0 .3-.1.4-.3.1-.1.1-.3.1-.5-.4-1.7-1.2-3.3-2.5-4.6z"/></g></symbol><symbol id="icon_phone" viewBox="0 0 24 24"><g class="nc-icon-wrapper" stroke="none"><path d="M19 14.9c-.5-.5-1.1-.8-1.7-.8-.6 0-1.2.3-1.7.8L14 16.5c-.1-.1-.3-.1-.4-.2-.2-.1-.4-.2-.5-.3-1.5-1-2.9-2.2-4.2-3.8-.6-.8-1.1-1.5-1.4-2.2l1.2-1.2c.1-.1.3-.2.4-.4 1.1-1.1 1.1-2.4 0-3.5L7.7 3.6c-.1-.2-.3-.4-.5-.5-.3-.3-.6-.6-1-.9-.4-.6-1-.8-1.6-.8s-1.2.2-1.7.7L1.1 3.9C.5 4.5.1 5.3 0 6.2-.1 7.7.4 9.1.7 10c.8 2.2 2 4.3 3.9 6.5 2.2 2.6 4.9 4.7 7.9 6.2 1.2.6 2.7 1.2 4.5 1.3h.3c1.2 0 2.2-.4 2.9-1.3l.9-.9.7-.7c.5-.5.8-1.1.8-1.8 0-.6-.3-1.2-.8-1.7L19 14.9zm1.8 5.3l-.6.6c-.3.3-.7.6-1 1-.5.5-1.1.8-1.9.8h-.2c-1.5-.1-2.9-.7-4-1.2-2.9-1.4-5.4-3.4-7.5-5.9-1.7-2.1-2.9-4-3.6-6.1-.5-1.1-.7-2.1-.6-3.1.1-.6.3-1.1.7-1.5l1.7-1.7c.2-.2.5-.4.8-.4.3 0 .6.2.7.4.4.3.7.6 1 .9l.5.5 1.4 1.4c.5.5.5 1 0 1.6-.2.1-.4.3-.5.4-.4.4-.8.9-1.3 1.2-.4.5-.4.9-.3 1.2.4.9.9 1.8 1.7 2.7 1.4 1.7 2.9 3.1 4.5 4.1l.6.3c.2.1.4.2.5.3h.1c.2.1.3.1.5.1.4 0 .7-.3.8-.3l1.7-1.7c.2-.2.4-.4.8-.4.3 0 .6.2.7.4l2.8 2.8c.5.5.5 1.1 0 1.6zM13 5.7c1.3.2 2.5.9 3.5 1.8s1.6 2.2 1.8 3.5c.1.3.3.6.7.6h.1c.4-.1.6-.4.6-.8-.3-1.6-1-3.1-2.2-4.2-1.2-1.2-2.6-1.9-4.2-2.2-.4-.1-.7.2-.8.6-.1.3.1.6.5.7zm11 4.9c-.5-2.6-1.7-5.1-3.6-7S16 .5 13.4 0c-.4-.1-.7.2-.8.6-.1.4.2.7.6.8 2.4.4 4.5 1.5 6.2 3.2 1.7 1.7 2.8 3.9 3.2 6.2.1.3.3.6.7.6h.1c.4-.1.6-.4.6-.8z"/></g></symbol><symbol id="icon_arrow" viewBox="0 0 24 24"><g class="nc-icon-wrapper" stroke="none"><path d="M23.8 11.5l-7.9-7.9c-.3-.3-.8-.3-1 0s-.3.8 0 1l6.7 6.7H.7c-.4 0-.7.3-.7.7 0 .4.3.7.7.7h20.8l-6.7 6.7c-.3.3-.3.8 0 1 .1.1.3.2.5.2s.4-.1.5-.2l7.9-7.9c.4-.3.4-.7.1-1z"/></g></symbol><symbol id="icon_arrow_select" viewBox="0 0 24 24"><g class="nc-icon-wrapper" stroke="none"><path d="M12 16l-4.5-4.5c-.3-.3-.3-.7 0-1s.7-.3 1 0L12 14l3.5-3.5c.3-.3.7-.3 1 0s.3.7 0 1L12 16z"/></g></symbol><symbol id="icon_plus" viewBox="0 0 24 24"><g class="nc-icon-wrapper" stroke="none"><path d="M23.3 11.3H12.7V.7c0-.4-.3-.7-.7-.7s-.7.3-.7.7v10.6H.7c-.4 0-.7.3-.7.7s.3.7.7.7h10.6v10.6c0 .4.3.7.7.7s.7-.3.7-.7V12.7h10.6c.4 0 .7-.3.7-.7s-.3-.7-.7-.7z"/></g></symbol><symbol id="icon_print" viewBox="0 0 24 24"><g class="nc-icon-wrapper" stroke="none"><path d="M19.9 4.9h-.6V3.5c0-2-1.6-3.5-3.5-3.5H8.3c-2 0-3.5 1.6-3.5 3.5v1.4h-.6C2.2 4.9.7 6.5.7 8.4v5.7c0 2 1.6 3.5 3.5 3.5h.6v4.5c0 1 .8 1.8 1.8 1.8h11c1 0 1.8-.8 1.8-1.8v-4.5h.6c2 0 3.5-1.6 3.5-3.5V8.5c0-2-1.6-3.6-3.6-3.6zM6.1 3.5c0-1.2 1-2.2 2.2-2.2h7.4c1.2 0 2.2 1 2.2 2.2v1.4H6.1V3.5zm11.8 18.7c0 .2-.2.4-.4.4h-11c-.2 0-.4-.2-.4-.4v-7.4H18v7.4zm4.2-8c0 1.2-1 2.2-2.2 2.2h-.6v-1.6h.9c.4 0 .7-.3.7-.7 0-.4-.3-.7-.7-.7H3.8c-.4 0-.7.3-.7.7 0 .4.3.7.7.7h1v1.6h-.6c-1.2 0-2.2-1-2.2-2.2V8.5c0-1.2 1-2.2 2.2-2.2h15.7c1.2 0 2.2 1 2.2 2.2v5.7z"/><path d="M7.7 18.1h8.6c.4 0 .7-.3.7-.7 0-.4-.3-.7-.7-.7H7.7c-.4 0-.7.3-.7.7 0 .4.3.7.7.7zm8.6 1.4H7.8c-.4 0-.7.3-.7.7s.3.7.7.7h8.6c.4 0 .7-.3.7-.7s-.4-.7-.8-.7zm3.6-11.9h-1.4c-.4 0-.7.3-.7.7 0 .4.3.7.7.7h1.4c.4 0 .7-.3.7-.7 0-.4-.3-.7-.7-.7z"/></g></symbol><symbol id="icon_radiobtn" viewBox="0 0 24 24"><g class="nc-icon-wrapper" stroke="none"><path d="M20.5 3.5C18.2 1.2 15.2 0 12 0S5.8 1.2 3.5 3.5 0 8.8 0 12s1.2 6.2 3.5 8.5S8.8 24 12 24s6.2-1.2 8.5-3.5S24 15.2 24 12s-1.2-6.2-3.5-8.5zm-1 16c-2 2-4.7 3.1-7.5 3.1s-5.5-1.1-7.5-3.1C.4 15.4.4 8.6 4.5 4.5c2-2 4.7-3.1 7.5-3.1s5.5 1.1 7.5 3.1c4.2 4.1 4.2 10.9 0 15z"/></g></symbol><symbol id="icon_radiobtnactive" viewBox="0 0 24 24"><g class="nc-icon-wrapper" stroke="none"><path d="M20.5 3.5C18.2 1.2 15.2 0 12 0S5.8 1.2 3.5 3.5 0 8.8 0 12s1.2 6.2 3.5 8.5S8.8 24 12 24s6.2-1.2 8.5-3.5S24 15.2 24 12s-1.2-6.2-3.5-8.5zm-1 16c-2 2-4.7 3.1-7.5 3.1s-5.5-1.1-7.5-3.1C.4 15.4.4 8.6 4.5 4.5c2-2 4.7-3.1 7.5-3.1s5.5 1.1 7.5 3.1c4.2 4.1 4.2 10.9 0 15z"/><path d="M12 5.5c-3.6 0-6.5 2.9-6.5 6.5s2.9 6.5 6.5 6.5 6.5-2.9 6.5-6.5-2.9-6.5-6.5-6.5z"/></g></symbol><symbol id="icon_review" viewBox="0 0 24 24"><g class="nc-icon-wrapper" stroke="none"><path d="M20.5 3.5C18.2 1.2 15.2 0 12 0S5.8 1.2 3.5 3.5c-4.4 4.4-4.7 11.4-.8 16.1-.4.8-1 1.7-1.9 2.1-.4.3-.7.8-.6 1.3s.5.9.9.9c.2 0 .6.1.9.1 1.1 0 2.6-.2 4.2-1.4 1.8 1 3.7 1.4 5.7 1.4 3.1 0 6.2-1.2 8.5-3.5s3.5-5.3 3.5-8.5-1.2-6.2-3.4-8.5zm-1 16c-3.4 3.4-8.7 4.1-12.9 1.7-.3-.2-.6-.1-.8.1h-.1c-1.4 1.1-2.7 1.3-3.6 1.3 1-.8 1.7-1.9 2.1-2.7.1-.1.1-.3 0-.4 0-.1-.1-.3-.2-.4C.3 14.8.5 8.5 4.5 4.5c4.1-4.1 10.9-4.1 15 0 4.2 4.1 4.2 10.9 0 15z"/><circle cx="12" cy="12" r=".8"/><circle cx="16.3" cy="12" r=".8"/><circle cx="7.7" cy="12" r=".8"/></g></symbol><symbol id="icon_right" viewBox="0 0 24 24"><g class="nc-icon-wrapper" stroke="none"><path d="M18.1 11.5L6.8.2c-.3-.3-.7-.3-1 0s-.3.7 0 1L16.7 12 5.9 22.8c-.3.3-.3.7 0 1 .1.1.3.2.4.2.2 0 .3-.1.5-.2l11.3-11.3c.3-.3.3-.7 0-1z"/></g></symbol><symbol id="icon_search" viewBox="0 0 24 24"><g class="nc-icon-wrapper" stroke="none"><path d="M23.8 22.8L18 16.9c1.6-1.8 2.5-4.1 2.5-6.7C20.5 4.6 15.9 0 10.2 0 4.6 0 0 4.6 0 10.2s4.6 10.2 10.2 10.2c2.6 0 4.9-.9 6.7-2.5l5.8 5.8c.1.1.3.2.5.2s.4-.1.5-.2c.4-.2.4-.6.1-.9zM1.4 10.2c0-4.9 3.9-8.8 8.8-8.8S19 5.3 19 10.2 15.1 19 10.2 19c-4.8 0-8.8-3.9-8.8-8.8z"/></g></symbol><symbol id="icon_send" viewBox="0 0 24 24"><g class="nc-icon-wrapper" stroke="none"><path d="M23.8.2c-.2-.2-.5-.2-.8-.1L.4 10c-.2.1-.4.3-.4.6s.1.5.3.6l7.9 4.5 4.7 8c.1.2.4.3.6.3.3 0 .5-.2.6-.4L23.9 1c.2-.3.1-.6-.1-.8zm-3.6 2.6L8.6 14.3l-6.4-3.6 18-7.9zm-6.8 19l-3.8-6.5L21.2 3.7l-7.8 18.1z"/></g></symbol><symbol id="icon_placeholder_sm" viewBox="0 0 24 24"><g class="nc-icon-wrapper" stroke="none"><path d="M12.3 3.8c-3.6 0-6.6 3-6.6 6.6 0 .4 0 .8.1 1.2v.2c.1.5.3.9.4 1.3.7 1.6 2.2 4.2 5.6 6.9.1.1.3.1.4.1s.3 0 .4-.1c3.4-2.7 4.9-5.2 5.6-6.9.2-.4.3-.9.4-1.3v-.2c.1-.4.1-.8.1-1.2.2-3.6-2.8-6.6-6.4-6.6zm5.3 6.6c0 .3 0 .7-.1 1v.2c-.1.4-.2.7-.3 1-.6 1.4-1.9 3.6-4.8 6.1-2.9-2.4-4.2-4.6-4.8-6.1-.1-.3-.3-.7-.3-1v-.2c-.3-.3-.3-.6-.3-1 0-2.9 2.4-5.3 5.3-5.3s5.3 2.4 5.3 5.3z"/><path d="M12.3 6.9c-2 0-3.6 1.6-3.6 3.6s1.6 3.6 3.6 3.6 3.6-1.6 3.6-3.6-1.6-3.6-3.6-3.6zm0 5.9c-1.3 0-2.3-1-2.3-2.3 0-1.3 1-2.3 2.3-2.3s2.3 1 2.3 2.3c0 1.3-1 2.3-2.3 2.3z"/></g></symbol><symbol id="icon_success" viewBox="0 0 24 24"><g class="nc-icon-wrapper" stroke="none"><path d="M20.4 3.5C18.2 1.2 15.2 0 12 0S5.7 1.2 3.5 3.5 0 8.8 0 12s1.2 6.2 3.5 8.5S8.8 24 12 24s6.2-1.2 8.5-3.5S24 15.2 24 12s-1.3-6.2-3.6-8.5zm-.9 16c-2 2-4.7 3.1-7.5 3.1s-5.5-1.1-7.5-3.1C.4 15.4.4 8.6 4.5 4.5c2-2 4.7-3.1 7.5-3.1s5.5 1.1 7.5 3.1c4.1 4.1 4.1 10.9 0 15z"/><path d="M10.7 18c-.2 0-.3-.1-.4-.2l-4.1-4.1c-.2-.2-.2-.6 0-.9.2-.2.6-.2.9 0l3.6 3.6 6.2-10.1c.1-.3.5-.4.8-.2.3.2.4.6.2.9l-6.6 10.8c-.1.1-.3.2-.6.2.1 0 0 0 0 0z"/></g></symbol><symbol id="icon_trash" viewBox="0 0 24 24"><g class="nc-icon-wrapper" stroke="none"><path d="M22.2 3.5h-5v-.9C17.2 1.1 16 0 14.6 0H9.9C8.4 0 7.2 1.2 7.2 2.6v.8h-5c-.4 0-.7.3-.7.7s.3.7.7.7h1.2v15.7C3.4 22.4 5 24 7 24h10.5c2 0 3.6-1.6 3.6-3.6V4.8h1.2c.4 0 .7-.3.7-.7s-.4-.6-.8-.6zM8.6 2.6c0-.7.6-1.3 1.3-1.3h4.7c.7 0 1.3.6 1.3 1.3v.8H8.6v-.8zm11.1 17.8c0 1.2-1 2.2-2.2 2.2H7c-1.2 0-2.2-1-2.2-2.2V4.8h14.9v15.6z"/><path d="M12.2 20.3c.4 0 .7-.3.7-.7V7.8c0-.4-.3-.7-.7-.7s-.7.3-.7.7v11.8c.1.4.4.7.7.7zm-4.3-.8c.4 0 .7-.3.7-.7V8.6c0-.4-.3-.7-.7-.7-.4 0-.7.3-.7.7v10.3c0 .3.3.6.7.6zm8.7 0c.4 0 .7-.3.7-.7V8.6c0-.4-.3-.7-.7-.7s-.7.3-.7.7v10.3c0 .3.3.6.7.6z"/></g></symbol><symbol id="icon_up" viewBox="0 0 24 24"><g class="nc-icon-wrapper" stroke="none"><path d="M11.5 5.9L.2 17.2c-.3.3-.3.7 0 1s.7.3 1 0L12 7.3l10.8 10.8c.3.3.7.3 1 0 .1-.1.2-.3.2-.5s-.1-.3-.2-.5L12.5 5.9c-.3-.3-.7-.3-1 0z"/></g></symbol><symbol id="icon_upload" viewBox="0 0 24 24"><g class="nc-icon-wrapper" stroke="none"><path d="M22.9 11.7c-.4 0-.7.3-.7.7v6c0 1.6-1.3 3-3 3H4.8c-1.6 0-3-1.3-3-3v-6.1c0-.4-.3-.7-.7-.7s-.7.3-.7.7v6.1c0 2.4 1.9 4.3 4.3 4.3h14.5c2.4 0 4.3-1.9 4.3-4.3v-6c0-.4-.3-.7-.6-.7z"/><path d="M8.3 6.6l3.1-3.1V17c0 .4.3.7.7.7s.7-.3.7-.7V3.6l3.1 3.1c.1.1.3.2.5.2s.3-.1.5-.2c.3-.3.3-.7 0-.9l-4.2-4.2c-.1-.1-.3-.2-.5-.2s-.3.1-.5.2L7.3 5.7c-.2.3-.2.7 0 .9.3.3.7.3 1 0z"/></g></symbol><symbol id="icon_user" viewBox="0 0 24 24"><g class="nc-icon-wrapper" stroke="none"><path d="M11.9 12.9s.1 0 0 0h.1c1.5 0 2.6-.5 3.5-1.5 1.9-2.2 1.6-5.9 1.6-6.2-.1-2.6-1.4-3.9-2.4-4.5-.7-.4-1.6-.7-2.6-.7-.6 0-1.6.1-2.7.7S7 2.5 6.9 5.2c0 .4-.4 4.1 1.6 6.2.8 1 2 1.5 3.4 1.5zM8.2 5.3c.2-3.6 2.7-4 3.8-4 1.3 0 3.6.6 3.8 3.9 0 0 .4 3.4-1.2 5.2-.6.7-1.5 1.1-2.6 1.1s-1.9-.4-2.6-1.1c-1.6-1.6-1.2-5-1.2-5.1zm14 13.8V19c0-1-.1-3.3-2.3-4-2.2-.6-4.1-1.9-4.1-1.9-.3-.2-.7-.1-.9.2-.2.3-.1.7.2.9.1.1 2.1 1.4 4.5 2.1 1.2.4 1.3 1.7 1.3 2.8v.1c0 .4 0 1.1-.1 1.5-.8.5-4 2-8.8 2-4.8 0-8-1.6-8.8-2-.1-.4-.1-1.1-.1-1.5v-.1c0-1.1.2-2.4 1.3-2.8 2.5-.6 4.5-2 4.5-2.1.3-.2.4-.6.2-.9-.2-.3-.6-.4-.9-.2 0 0-1.9 1.3-4.1 1.9-2.2.7-2.2 3-2.3 4v.1c0 .3 0 1.6.3 2.3 0 .1.1.2.3.3.1 0 3.6 2.3 9.6 2.3s9.6-2.3 9.7-2.4l.3-.3c.2-.6.2-2 .2-2.2z"/></g></symbol><symbol id="icon_attach" viewBox="0 0 24 24"><g class="nc-icon-wrapper" stroke="none"><path d="M12.7 10.4c-.3.3-.3.7 0 .9 1.1 1.1 1.1 2.9 0 3.9L7 21c-1.1 1.1-2.9 1.1-3.9 0l-.9-.9c-1.1-1.1-1.1-2.9 0-3.9l5.7-5.7c.3-.3.3-.7 0-.9-.3-.3-.7-.3-.9 0l-5.7 5.7C.4 16 0 17.1 0 18.2c0 1.1.4 2.1 1.2 2.9l.9.9c.8.8 1.9 1.2 2.9 1.2s2.1-.4 2.9-1.2l5.7-5.7c1.6-1.6 1.6-4.2 0-5.8-.2-.4-.7-.4-.9-.1z"/><path d="M22.8 2.9l-.9-.9C20.3.4 17.7.4 16.1 2l-5.7 5.7c-1.6 1.6-1.6 4.2 0 5.8.3.3.7.3.9 0 .3-.3.3-.7 0-.9-1.1-1.1-1.1-2.9 0-3.9L17 3c1.1-1.1 2.9-1.1 3.9 0l.9.9c1.1 1.1 1.1 2.9 0 3.9l-5.7 5.7c-.3.3-.3.7 0 .9.1.1.3.2.5.2s.3-.1.5-.2l5.7-5.7C23.6 8 24 6.9 24 5.8s-.4-2.1-1.2-2.9z"/></g></symbol><symbol id="icon_wishlist" viewBox="0 0 24 24"><g class="nc-icon-wrapper" stroke="none"><path d="M22.2 3.4c-1.3-1.3-2.9-1.9-4.7-1.9-1.8 0-3.4.7-4.7 1.9l-.7.7-.7-.7c-1.3-1.3-2.9-2-4.7-2-1.7.1-3.4.7-4.6 2C.8 4.7.1 6.3.1 8.1c0 1.8.7 3.4 2 4.7l9.6 9.6c.1.1.3.2.5.2s.4-.1.5-.2l9.6-9.5c1.3-1.3 1.9-2.9 1.9-4.7-.1-1.9-.7-3.5-2-4.8zm-1 8.4l-9.1 9.1L3 11.8c-1-1-1.5-2.3-1.5-3.7S2.1 5.4 3 4.4c1-1 2.3-1.5 3.7-1.5 1.4 0 2.7.5 3.7 1.5l1.1 1.1c.3.3.7.3 1 0l1.1-1.1c1-1 2.3-1.5 3.7-1.5 1.4 0 2.7.5 3.7 1.5s1.5 2.3 1.5 3.7c.3 1.4-.3 2.7-1.3 3.7z"/></g></symbol><symbol id="icon_star" viewBox="0 0 24 24"><g class="nc-icon-wrapper" stroke="none"><path d="M24 9.2c-.1-.2-.3-.4-.5-.5L16 7.6 12.6.8c-.1-.2-.3-.4-.6-.4s-.5.1-.6.4L8.1 7.7.6 8.8c-.3.1-.5.2-.6.5 0 .2 0 .5.2.7l5.4 5.3-1.3 7.5c0 .3.1.5.3.7.1.1.3.1.4.1.1 0 .2 0 .3-.1L12 20l6.7 3.5c.1 0 .2.1.3.1.4 0 .7-.3.7-.7v-.2l-1.3-7.4 5.4-5.3c.2-.3.2-.6.2-.8zm-6.8 5.3c-.2.2-.2.4-.2.6l1.1 6.5-5.8-3c-.2-.1-.4-.1-.6 0l-5.8 3.1L7 15.1c0-.2 0-.4-.2-.6L2.1 9.9l6.5-1c.2 0 .4-.2.5-.4L12 2.7l2.9 5.9c.1.2.3.3.5.4l6.5.9-4.7 4.6z"/></g></symbol><symbol id="icon_placeholder" viewBox="0 0 24 24"><g class="nc-icon-wrapper" stroke="none"><path d="M12 0C6.7 0 2.4 4.3 2.4 9.6c0 .6.1 1.2.2 1.8 0 0 0 .1.1.3.1.7.3 1.3.6 1.9 1 2.4 3.3 6.2 8.3 10.2.1.1.3.2.4.2s.3-.1.4-.2c5-4 7.3-7.8 8.3-10.2.3-.6.5-1.2.6-1.9 0-.2.1-.3.1-.3.1-.6.2-1.2.2-1.8C21.6 4.3 17.3 0 12 0zm8.1 11.2c0 .1 0 .1-.1.2-.1.6-.3 1.1-.6 1.6-.9 2.2-3 5.6-7.5 9.3-4.5-3.7-6.6-7.1-7.5-9.3-.2-.5-.4-1.1-.6-1.6v-.2c-.1-.5-.2-1-.2-1.6 0-4.6 3.7-8.3 8.3-8.3s8.3 3.7 8.3 8.3c.1.5 0 1.1-.1 1.6z"/><path d="M12 3.6c-3.4 0-6.1 2.7-6.1 6.1s2.7 6.1 6.1 6.1 6.1-2.7 6.1-6.1-2.7-6.1-6.1-6.1zm0 10.9c-2.6 0-4.7-2.1-4.7-4.7S9.4 5 12 5s4.7 2.1 4.7 4.7-2.1 4.8-4.7 4.8z"/></g></symbol><symbol id="icon_warning" viewBox="0 0 24 24"><g class="nc-icon-wrapper" stroke="none"><path d="M12 15.5c-.4 0-.7-.3-.7-.7V4.6c0-.4.3-.7.7-.7s.7.3.7.7v10.2c0 .4-.3.7-.7.7zm0 4.6c-.4 0-.7-.3-.7-.7v-.9c0-.4.3-.7.7-.7s.7.3.7.7v.9c0 .4-.3.7-.7.7z"/><path d="M20.5 3.5C18.2 1.2 15.2 0 12 0S5.8 1.2 3.5 3.5 0 8.8 0 12s1.2 6.2 3.5 8.5S8.8 24 12 24s6.2-1.2 8.5-3.5S24 15.2 24 12s-1.2-6.2-3.5-8.5zm-1 16c-2 2-4.7 3.1-7.5 3.1s-5.5-1.1-7.5-3.1C.4 15.4.4 8.6 4.5 4.5c2-2 4.7-3.1 7.5-3.1s5.5 1.1 7.5 3.1c4.2 4.1 4.2 10.9 0 15z"/></g></symbol><symbol id="icon_youtube" viewBox="0 0 24 24"><g class="nc-icon-wrapper" stroke="none"><path d="M18.7 3.8H5.2C2.4 3.8.3 5.9.3 8.6v6.8c0 2.7 2.1 4.9 4.9 4.9h13.6c2.7 0 4.9-2.1 4.9-4.9V8.6c-.1-2.7-2.2-4.8-5-4.8zm-3.2 8.5l-6.4 3c-.2.1-.4 0-.4-.2V8.9c0-.2.2-.3.4-.2l6.4 3.2c.2.1.2.3 0 .4z"/></g></symbol><symbol id="icon_whatsapp" viewBox="0 0 24 24"><g class="nc-icon-wrapper" stroke="none"><path d="M11.4.4C5.2.7.4 5.8.4 11.9c0 1.8.5 3.7 1.2 5.2l-1.2 6c-.1.3.2.6.6.5l5.8-1.4c1.5.8 3.2 1.2 4.9 1.2 6.3.1 11.6-4.9 11.8-11.2C23.8 5.5 18.3.1 11.4.4zm7 18c-1.7 1.7-4 2.6-6.4 2.6-1.5 0-2.8-.3-4-.9l-.8-.4-3.6.9.8-3.7L4 16c-.7-1.2-.9-2.6-.9-4.1 0-2.4.9-4.7 2.6-6.4 1.7-1.7 4-2.6 6.4-2.6s4.7.9 6.4 2.6c1.7 1.7 2.6 4 2.6 6.4-.1 2.5-1 4.7-2.7 6.5z"/><path d="M17.5 14.4l-2.3-.7c-.3-.1-.6 0-.9.2l-.6.6c-.2.2-.6.3-.9.2-1.1-.4-3.3-2.4-3.9-3.4-.2-.3-.1-.7.1-.9l.5-.6c.5-.2.5-.4.4-.7l-1-2.2c-.2-.5-.9-.7-1.3-.3-.6.5-1.3 1.2-1.4 2.2-.2 1.5.5 3.6 3 6 2.9 2.7 5.4 3.1 6.8 2.7.9-.2 1.5-1.1 2-1.7.3-.6.1-1.3-.5-1.4z"/></g></symbol><symbol id="icon_instagram" viewBox="0 0 24 24"><g class="nc-icon-wrapper" stroke="none"><path d="M16.8.4H7.3C3.4.4.3 3.5.3 7.3v9.5c0 3.8 3.1 6.9 6.9 6.9h9.5c3.8 0 6.9-3.1 6.9-6.9V7.3c.1-3.8-3-6.9-6.8-6.9zm4.6 16.4c0 2.5-2 4.6-4.6 4.6H7.3c-2.5 0-4.6-2-4.6-4.6V7.3c0-2.5 2-4.6 4.6-4.6h9.5c2.5 0 4.6 2 4.6 4.6v9.5z"/><path d="M12.1 6c-3.3 0-6 2.7-6 6s2.7 6 6 6 6-2.7 6-6-2.8-6-6-6zm0 9.7c-2 0-3.7-1.7-3.7-3.7s1.7-3.7 3.7-3.7 3.7 1.7 3.7 3.7-1.7 3.7-3.7 3.7z"/><circle cx="18.1" cy="6" r="1.5"/></g></symbol><symbol id="icon_linkedin" viewBox="0 0 24 24"><g class="nc-icon-wrapper" stroke="none"><path d="M3.5.8C5 .8 6.1 2 6.1 3.6S4.8 6.3 3.3 6.2C1.8 6.2.7 5.1.7 3.6S2 .8 3.5.8zM5 23.2H1.8c-.4 0-.7-.3-.7-.7V8.9c0-.4.3-.7.7-.7h3.1c.4 0 .7.3.7.7v13.5c.2.5-.1.8-.6.8zM23.3 13c0-2.8-2.3-5.1-5.1-5.1h-.8c-1.5 0-3 .8-3.8 2-.1.1-.2.3-.2.4V8.6c0-.2-.1-.3-.3-.3h-4c-.2 0-.3.1-.3.3v14.3c0 .2.1.3.3.3h4.1c.2 0 .3-.1.3-.3v-8.3c0-1.5 1.1-2.6 2.5-2.6.7 0 1.5.3 1.8.7.5.5.7 1.1.7 1.8v8.4c0 .2.1.3.3.3h4.1c.2 0 .3-.1.3-.3l.1-9.9z"/></g></symbol><symbol id="icon_pinterest" viewBox="0 0 24 24"><g class="nc-icon-wrapper" stroke="none"><path d="M23.6 12.3C23.8 5.6 18.4.2 11.7.3 5.5.4.4 5.6.4 12c0 4.6 2.7 8.5 6.6 10.4.2.1.5-.1.5-.3 0-.8 0-1.5.2-2.3.2-.7.7-3.1 1.1-4.7.2-.7.2-1.4.1-2.3-.1-.3-.1-.6-.1-.9 0-1.7.9-3 2.3-3 1.1 0 1.5.8 1.5 1.7 0 1.1-.7 2.6-1.1 4.1-.3 1.3.6 2.3 1.8 2.3 2.3 0 3.9-2.3 3.9-5.6 0-3-2.1-5-5.2-5-3.5 0-5.6 2.6-5.6 5.3 0 1.1.4 2.3.9 2.8.1.1.1.2.1.4-.1.4-.3 1.2-.4 1.4-.1.2-.2.3-.4.2-1.5-.7-2.5-3-2.5-4.7 0-3.9 2.9-7.5 8.2-7.5 4.3 0 7.6 3.1 7.6 7.2 0 4.3-2.7 7.6-6.4 7.6-.9 0-2-.4-2.5-.9-.2-.2-.5-.1-.5.1l-.6 2.3c-.2.7-.6 1.5-.9 2.3-.1.2 0 .4.2.5.9.2 2 .4 3 .4 6-.3 11.2-5.5 11.4-11.5z"/></g></symbol><symbol id="icon_twitter" viewBox="0 0 24 24"><g class="nc-icon-wrapper" stroke="none"><path d="M23.3 4.5c-.5.2-1.1.4-1.7.6.6-.6 1.2-1.2 1.4-2.1.1-.2-.2-.4-.4-.3-.8.5-1.5.8-2.4.9H20c-.2 0-.3-.1-.4-.2-.9-.7-2.1-1.2-3.4-1.2-.5 0-1.1.1-1.5.3C13 3 11.8 4.3 11.4 6c-.2.6-.2 1.2-.1 1.8V8c-3.8-.2-7.1-2-9.4-4.7-.1-.1-.3-.1-.4.1C1 4 .9 4.9.9 5.9c0 1.4.6 2.6 1.5 3.6-.4-.2-.9-.3-1.2-.5-.2-.1-.3 0-.3.2 0 2 1.2 3.8 2.9 4.7h-.2c-.3 0-.6 0-.9-.1-.2 0-.4.2-.3.3.6 1.8 2.1 3.2 4 3.5-1.5 1.1-3.3 1.5-5.2 1.5H.7c-.2 0-.3.1-.4.3 0 .2 0 .4.2.5 2 1.2 4.5 1.8 6.9 1.8 2.1 0 4.1-.4 6-1.2 1.7-.8 3.1-1.8 4.4-3.2 1.2-1.2 2-2.8 2.6-4.5.6-1.5.9-3.3.9-4.9v-.1c0-.3.1-.5.3-.7.8-.6 1.5-1.4 2-2.3.1 0-.1-.3-.3-.3z"/></g></symbol><symbol id="icon_facebook" viewBox="0 0 24 24"><g class="nc-icon-wrapper" stroke="none"><path d="M13.9 13.1h3.6l.5-4.3h-4.1v-3c0-.9.7-1.5 1.5-1.5H18V.4h-3.7c-2.6 0-4.7 2.1-4.7 4.7v3.6H6V13h3.6v10.7H14V13.1z"/></g></symbol></svg>